<svg width="1280" height="352" viewBox="0 0 1280 352" fill="none" xmlns="http://www.w3.org/2000/svg">
<ellipse cx="1235.58" cy="258.209" rx="94.0559" ry="95.0107" fill="#FE9DCB"/>
<path d="M1113.87 348.088C1113.12 350.868 1110.42 352.653 1107.57 352.245L937.01 327.819C931.826 327.077 930.312 320.318 934.683 317.435L1149.93 175.459C1154.3 172.576 1159.92 176.628 1158.56 181.686L1113.87 348.088Z" fill="#7565E4"/>
<path d="M322.746 353.414C329.791 353.414 335.546 347.697 335.079 340.668C333.691 319.782 328.9 299.234 320.868 279.843C311.207 256.518 297.045 235.325 279.193 217.472C261.341 199.62 240.147 185.459 216.823 175.798C193.498 166.136 168.498 161.163 143.251 161.163C118.004 161.163 93.0048 166.136 69.6799 175.798C46.3549 185.459 25.1613 199.62 7.30911 217.472C-10.5431 235.325 -24.7042 256.518 -34.3657 279.843C-42.3977 299.234 -47.1891 319.782 -48.5769 340.668C-49.044 347.697 -43.2889 353.414 -36.244 353.414L143.251 353.414L322.746 353.414Z" fill="#56C496"/>
<path d="M558.013 353.457C554.869 353.457 552.313 350.908 552.406 347.766C553.853 299.038 573.843 252.608 608.415 218.036C644.331 182.12 693.043 161.943 743.836 161.943C794.629 161.943 843.342 182.12 879.258 218.036C913.83 252.608 933.819 299.038 935.266 347.766C935.36 350.908 932.803 353.457 929.66 353.457L887.624 353.457C884.481 353.457 881.946 350.907 881.816 347.767C880.392 313.21 866.04 280.362 841.486 255.808C815.587 229.91 780.462 215.36 743.836 215.36C707.211 215.36 672.085 229.91 646.187 255.808C621.633 280.362 607.28 313.21 605.856 347.767C605.727 350.907 603.191 353.457 600.048 353.457L558.013 353.457Z" fill="#FFC700"/>
<path d="M71.0841 5.30255C72.7749 2.37404 76.5195 1.37065 79.448 3.06142L561.253 281.232C564.182 282.923 565.185 286.667 563.494 289.596L530.038 347.544C528.347 350.472 524.603 351.476 521.674 349.785L39.8689 71.6145C36.9404 69.9238 35.937 66.1791 37.6278 63.2506L71.0841 5.30255Z" fill="#F54468"/>
</svg>
