<svg width="1920" height="1080" viewBox="0 0 1920 1080" fill="none" xmlns="http://www.w3.org/2000/svg">
<g clip-path="url(#clip0_1859_2346)">
<rect width="1920" height="1080" fill="white"/>
<rect width="1920" height="1080" rx="29" fill="white"/>
<mask id="mask0_1859_2346" style="mask-type:alpha" maskUnits="userSpaceOnUse" x="0" y="0" width="1920" height="1080">
<rect width="1920" height="1080" fill="white"/>
</mask>
<g mask="url(#mask0_1859_2346)">
<path d="M87.6529 1053.93C103.366 1017.14 111.592 977.649 111.863 937.715C112.133 897.781 104.443 858.186 89.2296 821.19C74.0166 784.194 51.5793 750.522 23.1988 722.095C-5.18168 693.669 -38.9496 671.046 -76.1769 655.517C-113.404 639.988 -153.362 631.857 -193.769 631.59C-234.175 631.323 -274.24 638.923 -311.674 653.958C-349.108 668.993 -383.18 691.168 -411.943 719.216C-440.706 747.264 -463.597 780.637 -479.31 817.428L-195.829 935.679L87.6529 1053.93Z" fill="#56C496"/>
<path d="M1345.55 1004.59C1355.45 1021.53 1368.62 1036.37 1384.31 1048.27C1400.01 1060.17 1417.92 1068.9 1437.03 1073.96C1456.14 1079.02 1476.07 1080.31 1495.68 1077.76C1515.3 1075.21 1534.21 1068.87 1551.34 1059.09C1568.48 1049.31 1583.49 1036.3 1595.54 1020.79C1607.58 1005.28 1616.41 987.572 1621.53 968.686C1626.66 949.801 1627.96 930.104 1625.38 910.719C1622.8 891.335 1616.38 872.643 1606.48 855.71L1476.02 930.152L1345.55 1004.59Z" fill="#56C496"/>
<path d="M-71.0147 87.4302C-54.5453 103.707 -34.8509 116.477 -13.0557 125.012C8.73942 133.547 32.2084 137.68 56.0112 137.175C79.814 136.669 103.484 131.535 125.671 122.065C147.858 112.596 168.126 98.9767 185.319 81.9851C202.512 64.9935 216.293 44.9624 225.874 23.0355C235.456 1.10856 240.651 -22.2848 241.162 -45.8089C241.674 -69.333 237.492 -92.5271 228.856 -114.067C220.22 -135.607 207.298 -155.071 190.829 -171.347L59.907 -41.9586L-71.0147 87.4302Z" fill="#56C496"/>
<path d="M2107.6 -43.1053C2107.6 146.087 1954.03 299.458 1764.58 299.458C1575.14 299.458 1421.56 146.087 1421.56 -43.1053C1421.56 -232.298 1575.14 -385.669 1764.58 -385.669C1954.03 -385.669 2107.6 -232.298 2107.6 -43.1053Z" fill="#FE9DCB"/>
<path d="M2107.6 -43.1053C2107.6 146.087 1954.03 299.458 1764.58 299.458C1575.14 299.458 1421.56 146.087 1421.56 -43.1053C1421.56 -232.298 1575.14 -385.669 1764.58 -385.669C1954.03 -385.669 2107.6 -232.298 2107.6 -43.1053Z" stroke="black"/>
<path d="M536.631 968.917C536.631 1050.73 470.168 1117.05 388.181 1117.05C306.195 1117.05 239.732 1050.73 239.732 968.917C239.732 887.104 306.195 820.781 388.181 820.781C470.168 820.781 536.631 887.104 536.631 968.917Z" fill="#FE9DCB"/>
<path d="M536.631 968.917C536.631 1050.73 470.168 1117.05 388.181 1117.05C306.195 1117.05 239.732 1050.73 239.732 968.917C239.732 887.104 306.195 820.781 388.181 820.781C470.168 820.781 536.631 887.104 536.631 968.917Z" stroke="black"/>
<path d="M1476.33 775.201C1476.33 816.108 1443.1 849.269 1402.11 849.269C1361.11 849.269 1327.88 816.108 1327.88 775.201C1327.88 734.295 1361.11 701.134 1402.11 701.134C1443.1 701.134 1476.33 734.295 1476.33 775.201Z" fill="#FE9DCB"/>
<path d="M1476.33 775.201C1476.33 816.108 1443.1 849.269 1402.11 849.269C1361.11 849.269 1327.88 816.108 1327.88 775.201C1327.88 734.295 1361.11 701.134 1402.11 701.134C1443.1 701.134 1476.33 734.295 1476.33 775.201Z" stroke="black"/>
<path d="M427.873 343.384C427.873 384.291 394.642 417.452 353.649 417.452C312.655 417.452 279.424 384.291 279.424 343.384C279.424 302.478 312.655 269.316 353.649 269.316C394.642 269.316 427.873 302.478 427.873 343.384Z" fill="#FE9DCB"/>
<path d="M427.873 343.384C427.873 384.291 394.642 417.452 353.649 417.452C312.655 417.452 279.424 384.291 279.424 343.384C279.424 302.478 312.655 269.316 353.649 269.316C394.642 269.316 427.873 302.478 427.873 343.384Z" stroke="black"/>
<path d="M826.324 1023.76C826.324 1051.68 803.739 1074.32 775.88 1074.32C748.021 1074.32 725.436 1051.68 725.436 1023.76C725.436 995.829 748.021 973.19 775.88 973.19C803.739 973.19 826.324 995.829 826.324 1023.76Z" fill="#FE9DCB"/>
<path d="M826.324 1023.76C826.324 1051.68 803.739 1074.32 775.88 1074.32C748.021 1074.32 725.436 1051.68 725.436 1023.76C725.436 995.829 748.021 973.19 775.88 973.19C803.739 973.19 826.324 995.829 826.324 1023.76Z" stroke="black"/>
<path d="M1590.69 384.135C1590.69 412.062 1568.1 434.701 1540.24 434.701C1512.38 434.701 1489.8 412.062 1489.8 384.135C1489.8 356.209 1512.38 333.57 1540.24 333.57C1568.1 333.57 1590.69 356.209 1590.69 384.135Z" fill="#FE9DCB"/>
<path d="M1590.69 384.135C1590.69 412.062 1568.1 434.701 1540.24 434.701C1512.38 434.701 1489.8 412.062 1489.8 384.135C1489.8 356.209 1512.38 333.57 1540.24 333.57C1568.1 333.57 1590.69 356.209 1590.69 384.135Z" stroke="black"/>
<path d="M375.999 553.598L526.542 592.385L334.717 701.839L375.999 553.598Z" fill="#7565E4"/>
<path d="M375.999 553.598L526.542 592.385L334.717 701.839L375.999 553.598Z" stroke="black"/>
<path d="M3.41289 344.35L55.1566 209.165L147.746 367.656L3.41289 344.35Z" fill="#7565E4"/>
<path d="M3.41289 344.35L55.1566 209.165L147.746 367.656L3.41289 344.35Z" stroke="black"/>
<path d="M1205.55 129.827L1257.29 -5.3586L1349.88 153.133L1205.55 129.827Z" fill="#7565E4"/>
<path d="M1205.55 129.827L1257.29 -5.3586L1349.88 153.133L1205.55 129.827Z" stroke="black"/>
<path d="M1643.87 657.81L1368.24 618.798L1716.09 392.043L1643.87 657.81Z" fill="#7565E4"/>
<path d="M1643.87 657.81L1368.24 618.798L1716.09 392.043L1643.87 657.81Z" stroke="black"/>
<path d="M2463.04 849.698C2436.41 947.91 2371.4 1031.65 2282.3 1082.48C2193.21 1133.32 2087.32 1147.1 1987.95 1120.78C1888.57 1094.47 1803.84 1030.21 1752.4 942.16C1700.96 854.105 1687.02 749.462 1713.65 651.25L1818.16 678.926C1798.96 749.744 1809.01 825.2 1846.1 888.695C1883.2 952.189 1944.29 998.52 2015.95 1017.5C2087.61 1036.47 2163.96 1026.54 2228.2 989.879C2292.45 953.221 2339.33 892.841 2358.53 822.022L2463.04 849.698Z" fill="#FFC700"/>
<path d="M805.14 118.019C705.765 144.335 599.881 130.558 510.784 79.7199C421.686 28.8817 356.672 -54.8539 330.045 -153.066C303.417 -251.278 317.357 -355.921 368.797 -443.976C420.238 -532.03 504.965 -596.283 604.341 -622.599L632.345 -519.312C560.687 -500.336 499.592 -454.005 462.499 -390.511C425.406 -327.016 415.355 -251.56 434.555 -180.742C453.756 -109.923 500.636 -49.543 564.882 -12.8846C629.129 23.7738 705.479 33.7078 777.137 14.732L805.14 118.019Z" fill="#FFC700"/>
<path d="M-201.96 434.066L227.152 595.768L248.519 540.386L-180.593 378.684L-201.96 434.066Z" fill="#F54468"/>
<path d="M-201.96 434.066L227.152 595.768L248.519 540.386L-180.593 378.684L-201.96 434.066Z" stroke="black"/>
<path d="M1269.33 889.152L1059.81 1083.73L1090.94 1116.47L1300.46 921.893L1269.33 889.152Z" fill="#F54468"/>
<path d="M1269.33 889.152L1059.81 1083.73L1090.94 1116.47L1300.46 921.893L1269.33 889.152Z" stroke="black"/>
<path d="M1262.04 -226.138L937.3 94.796L979.709 136.708L1304.45 -184.227L1262.04 -226.138Z" fill="#F54468"/>
<path d="M1262.04 -226.138L937.3 94.796L979.709 136.708L1304.45 -184.227L1262.04 -226.138Z" stroke="black"/>
<rect width="103.242" height="99.9865" transform="matrix(0.974009 0.226507 -0.23162 0.972806 168.404 684.911)" fill="#FFA800"/>
<rect width="103.242" height="99.9865" transform="matrix(0.974009 0.226507 -0.23162 0.972806 168.404 684.911)" stroke="black"/>
<rect width="103.242" height="99.9865" transform="matrix(0.974009 0.226507 -0.23162 0.972806 1818.01 392.043)" fill="#FFA800"/>
<rect width="103.242" height="99.9865" transform="matrix(0.974009 0.226507 -0.23162 0.972806 1818.01 392.043)" stroke="black"/>
<rect width="75.4514" height="73.0721" transform="matrix(0.974009 0.226507 -0.23162 0.972806 597.905 783.342)" fill="#FFA800"/>
<rect width="75.4514" height="73.0721" transform="matrix(0.974009 0.226507 -0.23162 0.972806 597.905 783.342)" stroke="black"/>
</g>
</g>
<defs>
<clipPath id="clip0_1859_2346">
<rect width="1920" height="1080" fill="white"/>
</clipPath>
</defs>
</svg>
