<svg width="132" height="132" viewBox="0 0 132 132" fill="none" xmlns="http://www.w3.org/2000/svg">
<circle cx="66" cy="66" r="66" fill="#FFC700"/>
<path d="M37.3992 45.4897C37.3992 42.4248 38.5581 39.4855 40.6209 37.3183C42.6837 35.1511 45.4814 33.9336 48.3987 33.9336C51.3159 33.9336 54.1137 35.1511 56.1765 37.3183C58.2393 39.4855 59.3981 42.4248 59.3981 45.4897C59.3981 48.5546 58.2393 51.4939 56.1765 53.6611C54.1137 55.8282 51.3159 57.0458 48.3987 57.0458C45.4814 57.0458 42.6837 55.8282 40.6209 53.6611C38.5581 51.4939 37.3992 48.5546 37.3992 45.4897ZM48.3987 27C43.7311 27 39.2547 28.948 35.9542 32.4155C32.6537 35.883 30.7996 40.5859 30.7996 45.4897C30.7996 50.3935 32.6537 55.0964 35.9542 58.5639C39.2547 62.0314 43.7311 63.9794 48.3987 63.9794C53.0663 63.9794 57.5427 62.0314 60.8431 58.5639C64.1436 55.0964 65.9978 50.3935 65.9978 45.4897C65.9978 40.5859 64.1436 35.883 60.8431 32.4155C57.5427 28.948 53.0663 27 48.3987 27ZM81.397 50.1121C81.397 48.2732 82.0924 46.5096 83.33 45.2093C84.5677 43.909 86.2464 43.1785 87.9967 43.1785C89.747 43.1785 91.4257 43.909 92.6634 45.2093C93.9011 46.5096 94.5964 48.2732 94.5964 50.1121C94.5964 51.951 93.9011 53.7146 92.6634 55.0149C91.4257 56.3152 89.747 57.0458 87.9967 57.0458C86.2464 57.0458 84.5677 56.3152 83.33 55.0149C82.0924 53.7146 81.397 51.951 81.397 50.1121ZM87.9967 36.2448C84.496 36.2448 81.1387 37.7059 78.6634 40.3065C76.188 42.9071 74.7974 46.4343 74.7974 50.1121C74.7974 53.7899 76.188 57.3171 78.6634 59.9178C81.1387 62.5184 84.496 63.9794 87.9967 63.9794C91.4974 63.9794 94.8547 62.5184 97.33 59.9178C99.8054 57.3171 101.196 53.7899 101.196 50.1121C101.196 46.4343 99.8054 42.9071 97.33 40.3065C94.8547 37.7059 91.4974 36.2448 87.9967 36.2448ZM75.8885 96.512C78.9816 97.8294 82.9458 98.6476 88.0011 98.6476C98.0414 98.6476 103.779 95.4257 106.907 91.4458C108.425 89.5137 109.195 87.563 109.591 86.0699C109.817 85.2051 109.955 84.3171 110 83.4213V83.2965C109.999 80.6255 108.988 78.0643 107.191 76.1757C105.393 74.287 102.955 73.2255 100.413 73.2242H75.5893C75.4661 73.2242 75.3459 73.2273 75.2285 73.2335C76.9621 75.1287 78.2204 77.5092 78.8188 80.1579H100.413C102.05 80.1579 103.378 81.54 103.4 83.2503L103.387 83.3982C103.37 83.5769 103.315 83.8543 103.224 84.2302C102.953 85.2582 102.472 86.2122 101.816 87.0268C100.276 88.9959 96.6599 91.7139 88.0011 91.7139C83.6893 91.7139 80.6271 91.0391 78.4536 90.1192C77.9784 91.9682 77.1952 94.2008 75.8885 96.512ZM31.8995 73.2242C29.274 73.2242 26.756 74.32 24.8995 76.2705C23.043 78.2209 22 80.8663 22 83.6247V84.9097C22.0046 85.2311 22.0252 85.552 22.0616 85.8712C22.4273 89.3101 23.6038 92.5989 25.4846 95.4396C29.0836 100.839 35.9561 105.581 48.3987 105.581C60.8413 105.581 67.7137 100.843 71.3127 95.435C73.1935 92.5943 74.3701 89.3055 74.7358 85.8666C74.7668 85.5485 74.7873 85.2293 74.7974 84.9097V83.6247C74.7974 80.8663 73.7544 78.2209 71.8979 76.2705C70.0413 74.32 67.5234 73.2242 64.8979 73.2242H31.8995ZM28.5997 84.8127V83.6247C28.5997 82.7052 28.9473 81.8234 29.5662 81.1733C30.185 80.5231 31.0243 80.1579 31.8995 80.1579H64.8979C65.773 80.1579 66.6124 80.5231 67.2312 81.1733C67.85 81.8234 68.1977 82.7052 68.1977 83.6247V84.8127L68.1669 85.1824C67.9137 87.4378 67.1371 89.5934 65.9054 91.4597C63.7363 94.7185 59.0549 98.6476 48.3987 98.6476C37.7424 98.6476 33.061 94.7185 30.8876 91.4597C29.6574 89.593 28.8824 87.4374 28.6305 85.1824L28.5997 84.8127Z" fill="#F8F7FC"/>
</svg>
