<svg width="132" height="132" viewBox="0 0 132 132" fill="none" xmlns="http://www.w3.org/2000/svg">
<circle cx="66" cy="66" r="66" fill="#F54468"/>
<path d="M75.4286 24C72.928 24 70.5298 25.0317 68.7616 26.8681C66.9934 28.7046 66 31.1953 66 33.7924V46.849C66.0003 48.8738 66.6049 50.8487 67.7306 52.5018C68.8562 54.155 70.4477 55.4051 72.2857 56.08V63.1697C72.2859 63.7899 72.4563 64.3973 72.7769 64.9206C73.0974 65.4439 73.5549 65.8615 74.0957 66.1245C74.6365 66.3876 75.2383 66.4851 75.8306 66.4058C76.4229 66.3265 76.9811 66.0735 77.44 65.6766L87.8743 56.6414H100.571C103.072 56.6414 105.47 55.6097 107.238 53.7733C109.007 51.9369 110 49.4461 110 46.849V33.7924C110 31.1953 109.007 28.7046 107.238 26.8681C105.47 25.0317 103.072 24 100.571 24H75.4286ZM72.2857 33.7924C72.2857 32.9267 72.6168 32.0965 73.2062 31.4843C73.7956 30.8722 74.595 30.5283 75.4286 30.5283H100.571C101.405 30.5283 102.204 30.8722 102.794 31.4843C103.383 32.0965 103.714 32.9267 103.714 33.7924V46.849C103.714 47.7147 103.383 48.5449 102.794 49.1571C102.204 49.7692 101.405 50.1131 100.571 50.1131H86.7429C86.0077 50.1135 85.296 50.3814 84.7314 50.8704L78.5714 56.1975V53.3773C78.5714 52.5116 78.2403 51.6813 77.6509 51.0692C77.0615 50.457 76.2621 50.1131 75.4286 50.1131C74.595 50.1131 73.7956 49.7692 73.2062 49.1571C72.6168 48.5449 72.2857 47.7147 72.2857 46.849V33.7924ZM34.5714 56.6414C34.5714 53.1786 35.8959 49.8576 38.2535 47.409C40.6111 44.9605 43.8087 43.5849 47.1429 43.5849C50.477 43.5849 53.6746 44.9605 56.0322 47.409C58.3898 49.8576 59.7143 53.1786 59.7143 56.6414C59.7143 60.1042 58.3898 63.4252 56.0322 65.8738C53.6746 68.3224 50.477 69.698 47.1429 69.698C43.8087 69.698 40.6111 68.3224 38.2535 65.8738C35.8959 63.4252 34.5714 60.1042 34.5714 56.6414ZM47.1429 50.1131C45.4758 50.1131 43.877 50.8009 42.6982 52.0252C41.5194 53.2495 40.8571 54.91 40.8571 56.6414C40.8571 58.3728 41.5194 60.0333 42.6982 61.2576C43.877 62.4819 45.4758 63.1697 47.1429 63.1697C48.8099 63.1697 50.4087 62.4819 51.5875 61.2576C52.7663 60.0333 53.4286 58.3728 53.4286 56.6414C53.4286 54.91 52.7663 53.2495 51.5875 52.0252C50.4087 50.8009 48.8099 50.1131 47.1429 50.1131ZM31.4286 76.2263H62.8571C65.3578 76.2263 67.7559 77.258 69.5241 79.0944C71.2923 80.9308 72.2857 83.4216 72.2857 86.0187C72.2857 93.3043 69.4006 99.1406 64.6674 103.09C60.0097 106.974 53.7617 108.868 47.1429 108.868C40.524 108.868 34.276 106.974 29.6183 103.09C24.8914 99.1406 22 93.3043 22 86.0187C22 83.4216 22.9934 80.9308 24.7616 79.0944C26.5298 77.258 28.928 76.2263 31.4286 76.2263ZM62.8571 82.7546H31.4286C30.595 82.7546 29.7956 83.0985 29.2062 83.7106C28.6168 84.3227 28.2857 85.153 28.2857 86.0187C28.2857 91.3523 30.3286 95.3085 33.5531 97.9981C36.8594 100.753 41.6114 102.339 47.1429 102.339C52.6743 102.339 57.4263 100.753 60.7326 97.9981C63.9571 95.3085 66 91.3523 66 86.0187C66 85.153 65.6689 84.3227 65.0795 83.7106C64.4901 83.0985 63.6907 82.7546 62.8571 82.7546Z" fill="#F8F7FC"/>
</svg>
