<svg width="132" height="132" viewBox="0 0 132 132" fill="none" xmlns="http://www.w3.org/2000/svg">
<circle cx="66" cy="66" r="66" fill="#56C496"/>
<path d="M103.336 47.3653L87.4743 30.7435C86.9468 30.1907 86.3206 29.7523 85.6314 29.4531C84.9422 29.154 84.2035 29 83.4574 29C82.7114 29 81.9727 29.154 81.2835 29.4531C80.5942 29.7523 79.968 30.1907 79.4406 30.7435L35.665 76.6107C35.1353 77.1613 34.7153 77.8168 34.4294 78.5389C34.1436 79.2611 33.9976 80.0356 34 80.8173V97.4392C34 99.0175 34.5985 100.531 35.6637 101.647C36.7289 102.763 38.1736 103.39 39.6801 103.39H55.5452C56.2914 103.393 57.0306 103.24 57.7199 102.94C58.4092 102.641 59.0348 102.201 59.5603 101.646L103.336 55.7823C103.863 55.2297 104.282 54.5736 104.568 53.8515C104.853 53.1294 105 52.3554 105 51.5738C105 50.7922 104.853 50.0182 104.568 49.2961C104.282 48.574 103.863 47.918 103.336 47.3653ZM40.8552 79.5862L70.9205 48.0869L76.8455 54.2945L46.7802 85.7901L40.8552 79.5862ZM39.6801 86.7683L49.8652 97.4392H39.6801V86.7683ZM56.7203 96.2081L50.7953 90.0005L80.8606 58.5011L86.7856 64.7088L56.7203 96.2081ZM90.8007 60.5021L74.9356 43.8803L83.4556 34.9538L99.3208 51.5719L90.8007 60.5021Z" fill="#F8F7FC"/>
</svg>
