<svg width="132" height="132" viewBox="0 0 132 132" fill="none" xmlns="http://www.w3.org/2000/svg">
<circle cx="66" cy="66" r="66" fill="#FE9DCB"/>
<mask id="mask0_1954_2350" style="mask-type:luminance" maskUnits="userSpaceOnUse" x="25" y="23" width="83" height="87">
<path d="M25 23H108V109.963H25V23Z" fill="white"/>
</mask>
<g mask="url(#mask0_1954_2350)">
<path d="M106.733 58.6399C105.803 57.4629 104.512 56.6593 103.081 56.3652C103.185 55.1206 103.353 53.5906 103.574 51.8187C103.944 50.1632 103.984 48.4458 103.694 46.7731C103.403 45.1004 102.788 43.5081 101.885 42.0951C101.315 41.3823 100.606 40.8045 99.807 40.3998C99.0075 39.995 98.1352 39.7726 97.2477 39.7471C96.4047 39.6928 95.5618 39.7607 94.737 39.9482C94.3517 38.3455 93.4259 36.943 92.1305 35.9999C90.8351 35.0568 89.2577 34.6367 87.6897 34.8174C86.3121 34.7938 84.9628 35.2282 83.8355 36.0583C82.7083 36.8883 81.861 38.0713 81.4155 39.4373C80.719 39.2443 80.0012 39.1483 79.2808 39.152C77.8906 39.0422 76.5057 39.427 75.3502 40.2442C74.1946 41.0614 73.336 42.2631 72.9131 43.655C72.5849 44.0602 72.3798 44.5589 72.3244 45.0872C71.9536 45.0266 71.5791 44.9948 71.2039 44.9921C69.5198 44.9615 67.8874 45.6015 66.6363 46.783C65.3856 45.6024 63.7544 44.9624 62.0713 44.9921C61.6355 44.9921 61.2024 45.0274 60.7744 45.1008C60.5796 43.3906 59.7693 41.8228 58.5088 40.7173C57.2484 39.6118 55.6328 39.0519 53.9917 39.152C53.2722 39.1483 52.5553 39.2443 51.8597 39.4373C51.4133 38.0713 50.5655 36.8885 49.4378 36.0585C48.3102 35.2286 46.9607 34.7941 45.5828 34.8174C44.0173 34.6396 42.4432 35.0599 41.1499 36.0011C39.8565 36.9423 38.931 38.341 38.5434 39.9401C37.7197 39.7493 36.8744 39.6816 36.0326 39.739C35.1455 39.7648 34.2737 39.9874 33.4748 40.3922C32.6758 40.7969 31.9678 41.3745 31.3976 42.087C30.4955 43.5001 29.88 45.0923 29.5891 46.7649C29.2982 48.4375 29.3381 50.1548 29.7065 51.8105C29.9295 53.5824 30.0955 55.1124 30.1993 56.3571C28.7645 56.6528 27.4715 57.4593 26.5395 58.6399C24.7965 60.89 24.5371 64.2599 25.7432 69.2385L26.1556 70.9696C28.3344 80.2095 32.3806 97.3983 48.7212 97.3983C58.8005 97.3983 63.9958 92.2348 66.6337 85.1691C69.2741 92.2348 74.4694 97.3983 84.5487 97.3983C100.889 97.3983 104.938 80.204 107.114 70.9669L107.537 69.2385C108.741 64.2599 108.486 60.89 106.733 58.6399ZM48.7238 91.9631C37.3995 91.9631 33.8539 80.9486 31.1927 69.6625L30.7725 67.896C29.6961 63.4718 30.4094 62.257 30.565 62.0586C30.6464 61.9619 30.7463 61.8842 30.8581 61.8303C31.382 61.8575 31.8956 62.0043 32.3625 62.2543C33.055 62.6048 33.5971 63.2109 33.885 63.9582C35.0651 66.9476 36.0845 70.369 36.6733 72.4426C36.8732 73.1286 37.3238 73.7041 37.927 74.0434C38.5302 74.3828 39.237 74.4585 39.8932 74.254C40.5495 74.0496 41.102 73.5816 41.4302 72.952C41.7585 72.3225 41.8358 71.5826 41.6455 70.8935C41.0463 68.7765 39.9647 65.1404 38.6782 61.882C38.0404 60.2329 36.9222 58.8367 35.4827 57.8925C35.4205 56.281 35.2234 54.0689 34.8395 51.0985C34.3891 49.2447 34.5792 47.2837 35.3764 45.5628C35.4905 45.4278 35.6326 45.3219 35.7917 45.2531C35.9508 45.1844 36.1228 45.1546 36.2946 45.166C37.3658 45.1144 37.7004 45.2557 38.0609 45.7666L38.6756 57.6344C38.6939 57.9914 38.7792 58.3412 38.9267 58.6637C39.0741 58.9861 39.2809 59.2749 39.5351 59.5135C39.7893 59.7521 40.086 59.9357 40.4081 60.054C40.7301 60.1722 41.0713 60.2227 41.4121 60.2025C41.7526 60.1841 42.0863 60.0954 42.3941 59.9414C42.7018 59.7875 42.9775 59.5713 43.2052 59.3054C43.433 59.0395 43.6084 58.7291 43.7213 58.3919C43.8342 58.0548 43.8824 57.6976 43.8631 57.3409L43.2121 44.897C43.2121 40.2471 43.9072 40.2471 45.5828 40.2471C45.9233 40.2687 46.2484 40.4033 46.511 40.6315C46.7736 40.8597 46.9599 41.1696 47.0431 41.5163V55.376C47.0431 56.0968 47.3164 56.788 47.8028 57.2977C48.2892 57.8073 48.9489 58.0936 49.6368 58.0936C50.3247 58.0936 50.9845 57.8073 51.4709 57.2977C51.9573 56.788 52.2306 56.0968 52.2306 55.376V45.4568C52.2768 45.3916 52.3193 45.3235 52.3577 45.253C52.4225 45.1415 52.796 44.5763 53.9917 44.5763C54.6428 44.5763 55.2056 44.598 55.548 45.5981L55.6414 59.11C55.6462 59.8275 55.9215 60.5138 56.4074 61.0194C56.8933 61.5249 57.5503 61.8086 58.2351 61.8086H58.2559C58.5965 61.8061 58.9333 61.7333 59.2471 61.5945C59.5609 61.4556 59.8455 61.2533 60.0846 60.9992C60.3238 60.7451 60.5128 60.4441 60.641 60.1134C60.7691 59.7827 60.8338 59.4288 60.8315 59.072L60.7744 50.7806C61.1633 50.5287 61.6143 50.4021 62.0713 50.4164C63.6275 50.4164 63.905 52.047 63.9491 52.5443V52.6448C63.9725 53.4411 64.0321 56.4712 64.0321 66.0616C64.0425 84.4571 59.6046 91.9631 48.7238 91.9631ZM102.503 67.896L102.082 69.6625C99.4213 80.9486 95.8756 91.9631 84.5513 91.9631C73.6576 91.9631 69.23 84.4598 69.23 66.0616C69.23 56.4739 69.2923 53.4438 69.313 52.6476L69.326 52.5416C69.3701 52.0443 69.6372 50.4164 71.2039 50.4164C71.5561 50.4133 71.9051 50.4874 72.2284 50.6338L72.1687 59.0584C72.1657 59.4154 72.2298 59.7695 72.3575 60.1004C72.4852 60.4314 72.674 60.7327 72.913 60.9872C73.152 61.2416 73.4365 61.4442 73.7503 61.5833C74.0641 61.7224 74.401 61.7952 74.7417 61.7977H74.7625C75.4468 61.7977 76.1034 61.5144 76.5892 61.0095C77.0751 60.5045 77.3508 59.8188 77.3562 59.1019L77.4418 47.0575C77.7012 44.6116 78.4067 44.5654 79.2808 44.5654C79.8174 44.5204 80.3506 44.6882 80.7748 45.0356V55.3624C80.7748 56.0832 81.0481 56.7744 81.5345 57.2841C82.0209 57.7937 82.6806 58.08 83.3685 58.08C84.0565 58.08 84.7162 57.7937 85.2026 57.2841C85.689 56.7744 85.9623 56.0832 85.9623 55.3624V42.4674C86.1516 41.3804 86.6081 40.2444 87.6897 40.2444C89.0904 40.2444 89.7985 40.2852 89.9956 42.9892C89.9351 43.1579 89.8916 43.3328 89.8659 43.511L89.15 57.3354C89.1216 57.8788 89.2495 58.4185 89.5171 58.8849C89.7848 59.3512 90.1799 59.7226 90.6513 59.9509C91.1228 60.1793 91.6487 60.2541 92.1612 60.1658C92.6737 60.0774 93.149 59.8298 93.5257 59.4551C94.0086 58.9774 94.2983 58.3238 94.3349 57.6289L94.9263 46.215L94.9496 46.1851C95.4502 45.3426 95.624 45.0981 96.9857 45.1633C97.1575 45.1518 97.3295 45.1816 97.4886 45.2504C97.6477 45.3192 97.7898 45.4251 97.9039 45.5601C98.7002 47.2803 98.8895 49.2424 98.4408 51.0958C98.0803 53.9574 97.8754 56.1207 97.8028 57.7186C96.2349 58.6597 95.0138 60.1248 94.3349 61.8792C93.038 65.1404 91.9694 68.7738 91.3677 70.8908C91.1773 71.5799 91.2547 72.3198 91.5829 72.9493C91.9112 73.5788 92.4637 74.0468 93.1199 74.2513C93.7762 74.4557 94.4829 74.38 95.0861 74.0407C95.6893 73.7014 96.14 73.1259 96.3399 72.4398C96.9287 70.3663 97.9506 66.9476 99.1282 63.9555C99.4177 63.2102 99.9599 62.6033 100.651 62.2516C101.154 61.9798 101.706 61.8303 102.272 61.814V61.7678C102.439 61.8242 102.591 61.9231 102.713 62.0559C102.868 62.257 103.576 63.4718 102.503 67.896Z" fill="#F8F7FC"/>
</g>
</svg>
