<svg width="155" height="48" viewBox="0 0 155 48" fill="none" xmlns="http://www.w3.org/2000/svg">
<path d="M49.9853 28.1531C49.8446 27.5593 49.5556 27.0827 49.118 26.7234C48.6805 26.364 48.1492 26.1843 47.5242 26.1843C46.8679 26.1843 46.3289 26.3562 45.907 26.6999C45.5007 27.0437 45.2429 27.5281 45.1335 28.1531H49.9853ZM45.0163 30.6141C45.0163 32.4424 45.8757 33.3565 47.5945 33.3565C48.5165 33.3565 49.2118 32.9814 49.6806 32.2314H53.7823C52.9541 34.9815 50.8837 36.3566 47.5711 36.3566C46.5554 36.3566 45.6257 36.2081 44.7819 35.9113C43.9381 35.5987 43.2115 35.1612 42.6021 34.5987C42.0084 34.0362 41.5474 33.3643 41.2193 32.583C40.8911 31.8017 40.7271 30.9267 40.7271 29.9579C40.7271 28.9578 40.8833 28.0593 41.1958 27.2624C41.5083 26.4499 41.9537 25.7624 42.5318 25.1998C43.11 24.6373 43.8053 24.2076 44.6178 23.9107C45.446 23.5982 46.3757 23.442 47.407 23.442C48.4227 23.442 49.3368 23.5982 50.1493 23.9107C50.9619 24.2076 51.6494 24.6451 52.2119 25.2233C52.7745 25.8014 53.2042 26.5124 53.501 27.3562C53.7979 28.1844 53.9464 29.1219 53.9464 30.1688V30.6141H45.0163ZM58.8441 29.8641C58.8441 30.2548 58.9144 30.622 59.0551 30.9657C59.1957 31.2939 59.3832 31.5829 59.6176 31.833C59.8676 32.083 60.1567 32.2783 60.4848 32.4189C60.8286 32.5595 61.1958 32.6299 61.5864 32.6299C61.9614 32.6299 62.313 32.5595 62.6412 32.4189C62.9849 32.2783 63.274 32.083 63.5084 31.833C63.7584 31.5829 63.9537 31.2939 64.0943 30.9657C64.2506 30.6376 64.3287 30.286 64.3287 29.911C64.3287 29.536 64.2506 29.1844 64.0943 28.8563C63.9537 28.5125 63.7584 28.2156 63.5084 27.9656C63.274 27.7156 62.9849 27.5203 62.6412 27.3796C62.313 27.239 61.9614 27.1687 61.5864 27.1687C61.1958 27.1687 60.8286 27.239 60.4848 27.3796C60.1567 27.5203 59.8676 27.7156 59.6176 27.9656C59.3832 28.2156 59.1957 28.5047 59.0551 28.8328C58.9144 29.1453 58.8441 29.4891 58.8441 29.8641ZM64.1881 23.8873H68.4539V35.9113H64.1881V34.5753C63.2818 35.7159 62.0552 36.2863 60.5082 36.2863C59.6332 36.2863 58.8285 36.13 58.0941 35.8175C57.3597 35.4894 56.719 35.0362 56.1721 34.4581C55.6252 33.8799 55.1955 33.2002 54.883 32.4189C54.5861 31.6376 54.4377 30.786 54.4377 29.8641C54.4377 29.0047 54.5861 28.1922 54.883 27.4265C55.1799 26.6452 55.594 25.9655 56.1252 25.3874C56.6565 24.8092 57.2894 24.3561 58.0238 24.0279C58.7582 23.6842 59.5707 23.5123 60.4614 23.5123C61.9614 23.5123 63.2037 24.0357 64.1881 25.0827V23.8873ZM69.876 23.8873H74.1183V25.3639C75.2746 24.2545 76.5716 23.6998 78.0091 23.6998C79.7905 23.6998 81.1499 24.4498 82.0874 25.9499C83.0406 24.4342 84.4 23.6763 86.1657 23.6763C86.7283 23.6763 87.2595 23.7623 87.7596 23.9342C88.2596 24.0904 88.6893 24.3482 89.0487 24.7076C89.4081 25.0514 89.6893 25.5046 89.8925 26.0671C90.1112 26.6296 90.2206 27.3093 90.2206 28.1062V35.9113H85.9782V29.9813C85.9782 29.3719 85.9314 28.8719 85.8376 28.4812C85.7595 28.0906 85.6345 27.7859 85.4626 27.5671C85.3063 27.3484 85.1188 27.1999 84.9001 27.1218C84.6813 27.0437 84.4469 27.0046 84.1969 27.0046C82.8375 27.0046 82.1578 27.9968 82.1578 29.9813V35.9113H77.9154V29.9813C77.9154 29.3719 77.8763 28.8719 77.7982 28.4812C77.7201 28.075 77.6029 27.7546 77.4466 27.5203C77.306 27.2859 77.1185 27.1296 76.8841 27.0515C76.6497 26.9577 76.3763 26.9109 76.0637 26.9109C75.7981 26.9109 75.5481 26.9499 75.3137 27.0281C75.0793 27.1062 74.8684 27.2624 74.6809 27.4968C74.509 27.7156 74.3684 28.0281 74.259 28.4344C74.1652 28.825 74.1183 29.3407 74.1183 29.9813V35.9113H69.876V23.8873ZM99.6356 26.9812C98.8543 26.5749 98.0886 26.3718 97.3386 26.3718C96.9479 26.3718 96.6276 26.4499 96.3776 26.6062C96.1432 26.7624 96.026 26.9734 96.026 27.239C96.026 27.3796 96.0417 27.4968 96.0729 27.5906C96.1198 27.6687 96.2057 27.7468 96.3307 27.825C96.4714 27.9031 96.6667 27.9734 96.9167 28.0359C97.1823 28.0984 97.5261 28.1765 97.948 28.2703C99.1199 28.5047 99.995 28.9266 100.573 29.536C101.151 30.1298 101.44 30.8954 101.44 31.833C101.44 32.5361 101.3 33.1689 101.018 33.7315C100.737 34.294 100.347 34.7706 99.8465 35.1612C99.3465 35.5362 98.7449 35.8253 98.0417 36.0284C97.3386 36.2472 96.5651 36.3566 95.7213 36.3566C94.0963 36.3566 92.4946 35.8956 90.9164 34.9737L92.4634 31.9736C93.6509 32.7861 94.776 33.1924 95.8385 33.1924C96.2292 33.1924 96.5495 33.1064 96.7995 32.9346C97.0495 32.7627 97.1745 32.5439 97.1745 32.2783C97.1745 32.122 97.1511 31.997 97.1042 31.9033C97.073 31.7939 96.9948 31.7001 96.8698 31.622C96.7448 31.5283 96.5573 31.4501 96.3073 31.3876C96.0729 31.3095 95.7604 31.2314 95.3698 31.1532C94.0572 30.8876 93.1353 30.497 92.604 29.9813C92.0884 29.45 91.8305 28.7234 91.8305 27.8015C91.8305 27.1296 91.9555 26.528 92.2056 25.9968C92.4556 25.4499 92.815 24.9889 93.2837 24.6139C93.7525 24.2389 94.315 23.9498 94.9713 23.7467C95.6432 23.5435 96.3854 23.442 97.198 23.442C98.5261 23.442 99.8153 23.6998 101.065 24.2154L99.6356 26.9812ZM107.182 27.4265V35.9113H102.939V27.4265H101.533V23.8873H102.939V20.2778H107.182V23.8873H109.596V27.4265H107.182ZM118.744 28.1531C118.604 27.5593 118.315 27.0827 117.877 26.7234C117.44 26.364 116.908 26.1843 116.283 26.1843C115.627 26.1843 115.088 26.3562 114.666 26.6999C114.26 27.0437 114.002 27.5281 113.893 28.1531H118.744ZM113.775 30.6141C113.775 32.4424 114.635 33.3565 116.354 33.3565C117.276 33.3565 117.971 32.9814 118.44 32.2314H122.541C121.713 34.9815 119.643 36.3566 116.33 36.3566C115.315 36.3566 114.385 36.2081 113.541 35.9113C112.697 35.5987 111.971 35.1612 111.361 34.5987C110.767 34.0362 110.307 33.3643 109.978 32.583C109.65 31.8017 109.486 30.9267 109.486 29.9579C109.486 28.9578 109.642 28.0593 109.955 27.2624C110.267 26.4499 110.713 25.7624 111.291 25.1998C111.869 24.6373 112.564 24.2076 113.377 23.9107C114.205 23.5982 115.135 23.442 116.166 23.442C117.182 23.442 118.096 23.5982 118.908 23.9107C119.721 24.2076 120.409 24.6451 120.971 25.2233C121.534 25.8014 121.963 26.5124 122.26 27.3562C122.557 28.1844 122.705 29.1219 122.705 30.1688V30.6141H113.775ZM123.666 23.8873H127.908V25.8561C128.361 25.1373 128.916 24.5904 129.572 24.2154C130.228 23.8248 130.994 23.6295 131.869 23.6295C131.978 23.6295 132.096 23.6295 132.221 23.6295C132.361 23.6295 132.517 23.6451 132.689 23.6763V27.7312C132.127 27.4499 131.517 27.3093 130.861 27.3093C129.877 27.3093 129.135 27.6062 128.635 28.2C128.15 28.7781 127.908 29.6297 127.908 30.7548V35.9113H123.666V23.8873Z" fill="black"/>
<path d="M23.9356 23.7219C23.8622 23.8334 23.7172 23.8725 23.5978 23.813L16.4514 20.255C16.2342 20.1469 16.266 19.8275 16.5003 19.7644L28.0355 16.6539C28.2698 16.5907 28.4578 16.8508 28.3244 17.0535L23.9356 23.7219Z" fill="#7565E4"/>
<ellipse cx="138.335" cy="31.127" rx="4.35789" ry="4.40213" fill="#FE9DCB"/>
<path d="M29.5193 35.488C29.8457 35.488 30.1124 35.2231 30.0908 34.8974C30.0264 33.9297 29.8044 32.9777 29.4323 32.0792C28.9847 30.9985 28.3285 30.0166 27.5014 29.1894C26.6742 28.3623 25.6923 27.7061 24.6116 27.2585C23.5308 26.8108 22.3725 26.5804 21.2028 26.5804C20.033 26.5804 18.8747 26.8108 17.794 27.2585C16.7133 27.7061 15.7313 28.3623 14.9042 29.1894C14.077 30.0166 13.4209 30.9985 12.9733 32.0792C12.6011 32.9777 12.3791 33.9297 12.3148 34.8974C12.2932 35.2231 12.5598 35.488 12.8862 35.488L21.2028 35.488L29.5193 35.488Z" fill="#56C496"/>
<path d="M28.8828 23.1029C28.9958 23.1948 29.0132 23.3612 28.918 23.4714C27.4418 25.181 25.3661 26.266 23.1128 26.4985C20.7718 26.74 18.4308 26.0417 16.6047 24.5572C14.7786 23.0727 13.617 20.9236 13.3754 18.5826C13.1429 16.3292 13.7813 14.0758 15.1534 12.2816C15.2419 12.1659 15.4083 12.149 15.5213 12.2409L17.0326 13.4694C17.1456 13.5613 17.1622 13.7271 17.0751 13.8438C16.1163 15.1278 15.6722 16.7282 15.8374 18.3286C16.0115 20.0166 16.8491 21.5663 18.1659 22.6367C19.4827 23.7072 21.1707 24.2107 22.8587 24.0365C24.4591 23.8714 25.9352 23.11 26.9964 21.9092C27.0928 21.8001 27.2585 21.7825 27.3715 21.8743L28.8828 23.1029Z" fill="#FFC700"/>
<path d="M39.224 35.0108V19.1241C39.224 18.8108 38.9699 18.5568 38.6566 18.5568L35.2523 18.5568C34.939 18.5568 34.6849 18.8108 34.6849 19.1242V35.0108C34.6849 35.3241 34.939 35.5781 35.2523 35.5781H38.6566C38.9699 35.5781 39.224 35.3241 39.224 35.0108Z" fill="black"/>
<path d="M47.7721 18.0989C47.7739 17.9422 47.9023 17.8166 48.0589 17.8183L73.8343 18.1039C73.991 18.1057 74.1166 18.2341 74.1148 18.3907L74.0805 21.4908C74.0787 21.6475 73.9503 21.7731 73.7937 21.7713L48.0183 21.4857C47.8616 21.484 47.736 21.3556 47.7378 21.1989L47.7721 18.0989Z" fill="#F54468"/>
<path d="M31.1676 17.7835C31.2378 17.658 31.3704 17.5802 31.5143 17.5802L44.0559 17.5802C44.2769 17.5802 44.4555 17.7607 44.453 17.9817L44.4168 21.2474C44.4144 21.465 44.2373 21.6401 44.0197 21.6401L29.689 21.6401C29.3857 21.6401 29.1943 21.3139 29.3423 21.0492L31.1676 17.7835Z" fill="black"/>
</svg>
