<svg width="246" height="77" viewBox="0 0 246 77" fill="none" xmlns="http://www.w3.org/2000/svg">
<path d="M79.1099 44.8364C78.8859 43.8908 78.4255 43.1318 77.7287 42.5594C77.032 41.9871 76.1859 41.7009 75.1905 41.7009C74.1453 41.7009 73.2868 41.9746 72.6149 42.5221C71.9679 43.0696 71.5573 43.841 71.3831 44.8364H79.1099ZM71.1964 48.7558C71.1964 51.6673 72.5651 53.1231 75.3025 53.1231C76.7707 53.1231 77.8781 52.5259 78.6246 51.3314H85.1569C83.838 55.7111 80.5407 57.901 75.2651 57.901C73.6476 57.901 72.167 57.6646 70.8232 57.1918C69.4794 56.6941 68.3222 55.9973 67.3517 55.1014C66.4061 54.2056 65.672 53.1355 65.1494 51.8913C64.6268 50.647 64.3655 49.2535 64.3655 47.7106C64.3655 46.118 64.6144 44.6871 65.1121 43.418C65.6098 42.1239 66.319 41.029 67.2397 40.1331C68.1605 39.2373 69.2679 38.553 70.5619 38.0801C71.8808 37.5824 73.3614 37.3336 75.0038 37.3336C76.6214 37.3336 78.0771 37.5824 79.3711 38.0801C80.6652 38.553 81.7601 39.2497 82.656 40.1705C83.5518 41.0912 84.2362 42.2235 84.709 43.5673C85.1818 44.8862 85.4182 46.3793 85.4182 48.0466V48.7558H71.1964ZM93.2182 47.5613C93.2182 48.1834 93.3301 48.7682 93.5541 49.3157C93.7781 49.8383 94.0767 50.2986 94.45 50.6968C94.8481 51.095 95.3085 51.406 95.8311 51.63C96.3786 51.854 96.9633 51.9659 97.5855 51.9659C98.1827 51.9659 98.7426 51.854 99.2652 51.63C99.8127 51.406 100.273 51.095 100.646 50.6968C101.044 50.2986 101.356 49.8383 101.58 49.3157C101.828 48.7931 101.953 48.2332 101.953 47.636C101.953 47.0387 101.828 46.4788 101.58 45.9562C101.356 45.4088 101.044 44.9359 100.646 44.5378C100.273 44.1396 99.8127 43.8286 99.2652 43.6046C98.7426 43.3806 98.1827 43.2686 97.5855 43.2686C96.9633 43.2686 96.3786 43.3806 95.8311 43.6046C95.3085 43.8286 94.8481 44.1396 94.45 44.5378C94.0767 44.9359 93.7781 45.3963 93.5541 45.9189C93.3301 46.4166 93.2182 46.9641 93.2182 47.5613ZM101.729 38.0428H108.522V57.1918H101.729V55.0641C100.285 56.8807 98.332 57.789 95.8684 57.789C94.4749 57.789 93.1933 57.5402 92.0237 57.0425C90.8541 56.5199 89.8338 55.7982 88.9628 54.8775C88.0919 53.9567 87.4075 52.8742 86.9098 51.63C86.437 50.3857 86.2006 49.0295 86.2006 47.5613C86.2006 46.1926 86.437 44.8986 86.9098 43.6793C87.3826 42.435 88.0421 41.3525 88.8882 40.4318C89.7343 39.511 90.7421 38.7894 91.9117 38.2668C93.0813 37.7193 94.3753 37.4456 95.7938 37.4456C98.1827 37.4456 100.161 38.2792 101.729 39.9465V38.0428ZM110.787 38.0428H117.543V40.3944C119.385 38.6276 121.45 37.7442 123.74 37.7442C126.577 37.7442 128.742 38.9387 130.235 41.3276C131.753 38.9138 133.918 37.7069 136.73 37.7069C137.626 37.7069 138.472 37.8437 139.268 38.1175C140.064 38.3663 140.749 38.7769 141.321 39.3493C141.893 39.8967 142.341 40.6184 142.665 41.5143C143.013 42.4101 143.187 43.4926 143.187 44.7617V57.1918H136.431V47.7479C136.431 46.7774 136.356 45.9811 136.207 45.359C136.083 44.7369 135.884 44.2516 135.61 43.9032C135.361 43.5548 135.062 43.3184 134.714 43.194C134.366 43.0696 133.992 43.0074 133.594 43.0074C131.429 43.0074 130.347 44.5876 130.347 47.7479V57.1918H123.59V47.7479C123.59 46.7774 123.528 45.9811 123.404 45.359C123.279 44.712 123.093 44.2018 122.844 43.8286C122.62 43.4553 122.321 43.2064 121.948 43.082C121.575 42.9327 121.139 42.858 120.642 42.858C120.219 42.858 119.82 42.9203 119.447 43.0447C119.074 43.1691 118.738 43.418 118.439 43.7912C118.166 44.1396 117.942 44.6373 117.767 45.2843C117.618 45.9065 117.543 46.7277 117.543 47.7479V57.1918H110.787V38.0428ZM158.181 42.97C156.937 42.323 155.718 41.9995 154.523 41.9995C153.901 41.9995 153.391 42.1239 152.993 42.3728C152.62 42.6216 152.433 42.9576 152.433 43.3806C152.433 43.6046 152.458 43.7912 152.508 43.9405C152.582 44.065 152.719 44.1894 152.918 44.3138C153.142 44.4382 153.453 44.5502 153.851 44.6498C154.274 44.7493 154.822 44.8737 155.494 45.023C157.36 45.3963 158.754 46.0682 159.674 47.0387C160.595 47.9843 161.056 49.2037 161.056 50.6968C161.056 51.8166 160.832 52.8245 160.384 53.7203C159.936 54.6162 159.314 55.3752 158.517 55.9973C157.721 56.5945 156.763 57.0549 155.643 57.3784C154.523 57.7268 153.291 57.901 151.948 57.901C149.36 57.901 146.809 57.1669 144.295 55.6987L146.759 50.9208C148.65 52.2148 150.442 52.8618 152.134 52.8618C152.756 52.8618 153.267 52.7249 153.665 52.4512C154.063 52.1775 154.262 51.8291 154.262 51.406C154.262 51.1572 154.225 50.9581 154.15 50.8088C154.1 50.6346 153.976 50.4853 153.777 50.3609C153.578 50.2116 153.279 50.0871 152.881 49.9876C152.508 49.8632 152.01 49.7387 151.388 49.6143C149.297 49.1913 147.829 48.5691 146.983 47.7479C146.162 46.9019 145.751 45.7447 145.751 44.2765C145.751 43.2064 145.95 42.2484 146.349 41.4023C146.747 40.5313 147.319 39.7972 148.066 39.2C148.812 38.6027 149.708 38.1423 150.753 37.8188C151.823 37.4953 153.005 37.3336 154.299 37.3336C156.414 37.3336 158.467 37.7442 160.458 38.5654L158.181 42.97ZM170.199 43.6793V57.1918H163.443V43.6793H161.203V38.0428H163.443V32.2944H170.199V38.0428H174.044V43.6793H170.199ZM188.613 44.8364C188.389 43.8908 187.929 43.1318 187.232 42.5594C186.535 41.9871 185.689 41.7009 184.694 41.7009C183.649 41.7009 182.79 41.9746 182.118 42.5221C181.471 43.0696 181.061 43.841 180.887 44.8364H188.613ZM180.7 48.7558C180.7 51.6673 182.069 53.1231 184.806 53.1231C186.274 53.1231 187.382 52.5259 188.128 51.3314H194.66C193.341 55.7111 190.044 57.901 184.769 57.901C183.151 57.901 181.67 57.6646 180.327 57.1918C178.983 56.6941 177.826 55.9973 176.855 55.1014C175.91 54.2056 175.175 53.1355 174.653 51.8913C174.13 50.647 173.869 49.2535 173.869 47.7106C173.869 46.118 174.118 44.6871 174.616 43.418C175.113 42.1239 175.822 41.029 176.743 40.1331C177.664 39.2373 178.771 38.553 180.065 38.0801C181.384 37.5824 182.865 37.3336 184.507 37.3336C186.125 37.3336 187.581 37.5824 188.875 38.0801C190.169 38.553 191.264 39.2497 192.159 40.1705C193.055 41.0912 193.74 42.2235 194.212 43.5673C194.685 44.8862 194.922 46.3793 194.922 48.0466V48.7558H180.7ZM196.451 38.0428H203.207V41.1783C203.929 40.0336 204.812 39.1626 205.857 38.5654C206.902 37.9433 208.122 37.6322 209.515 37.6322C209.689 37.6322 209.876 37.6322 210.075 37.6322C210.299 37.6322 210.548 37.6571 210.822 37.7069V44.1645C209.926 43.7166 208.955 43.4926 207.91 43.4926C206.342 43.4926 205.16 43.9654 204.364 44.9111C203.593 45.8318 203.207 47.188 203.207 48.9797V57.1918H196.451V38.0428Z" fill="black"/>
<path d="M37.624 37.7788C37.5072 37.9562 37.2763 38.0185 37.0861 37.9238L25.705 32.2575C25.3591 32.0853 25.4097 31.5767 25.7828 31.4761L44.1535 26.5225C44.5265 26.4219 44.826 26.836 44.6136 27.1588L37.624 37.7788Z" fill="#7565E4"/>
<ellipse cx="219.812" cy="49.5718" rx="6.94024" ry="7.01069" fill="#FE9DCB"/>
<path d="M46.5166 56.5171C47.0365 56.5171 47.4611 56.0952 47.4267 55.5765C47.3243 54.0354 46.9707 52.5192 46.378 51.0884C45.6651 49.3672 44.6202 47.8034 43.3029 46.4861C41.9856 45.1688 40.4218 44.1239 38.7007 43.411C36.9796 42.6981 35.1349 42.3312 33.272 42.3312C31.4091 42.3312 29.5644 42.6981 27.8433 43.411C26.1222 44.1239 24.5583 45.1688 23.241 46.4861C21.9237 47.8034 20.8788 49.3672 20.1659 51.0884C19.5732 52.5192 19.2197 54.0354 19.1173 55.5765C19.0828 56.0952 19.5075 56.5171 20.0273 56.5171L33.272 56.5171L46.5166 56.5171Z" fill="#56C496"/>
<path d="M45.5028 36.793C45.6827 36.9392 45.7104 37.2042 45.5589 37.3798C43.2079 40.1024 39.9023 41.8303 36.3137 42.2006C32.5855 42.5853 28.8573 41.4732 25.9491 39.109C23.0409 36.7448 21.191 33.3222 20.8063 29.5941C20.436 26.0054 21.4526 22.4167 23.6379 19.5593C23.7787 19.3751 24.0438 19.3481 24.2238 19.4944L26.6305 21.451C26.8105 21.5973 26.837 21.8613 26.6982 22.0471C25.1713 24.092 24.4641 26.6408 24.7271 29.1895C25.0045 31.8778 26.3384 34.3458 28.4354 36.0506C30.5325 37.7553 33.2208 38.5572 35.9091 38.2798C38.4578 38.0169 40.8086 36.8042 42.4986 34.8918C42.6521 34.7181 42.916 34.6901 43.096 34.8364L45.5028 36.793Z" fill="#FFC700"/>
<path d="M61.9719 55.757V30.4565C61.9719 29.9575 61.5674 29.5529 61.0684 29.5529L55.6468 29.5529C55.1478 29.5529 54.7432 29.9575 54.7432 30.4565V55.757C54.7432 56.2561 55.1478 56.6606 55.6468 56.6606H61.0684C61.5674 56.6606 61.9719 56.2561 61.9719 55.757Z" fill="black"/>
<path d="M75.5854 28.8237C75.5882 28.5741 75.7927 28.3741 76.0422 28.3769L117.091 28.8317C117.341 28.8345 117.541 29.039 117.538 29.2885L117.483 34.2256C117.48 34.4751 117.276 34.6751 117.026 34.6723L75.9774 34.2175C75.7279 34.2147 75.5279 34.0102 75.5307 33.7607L75.5854 28.8237Z" fill="#F54468"/>
<path d="M49.1414 28.3215C49.2532 28.1215 49.4644 27.9976 49.6935 27.9976L69.6669 27.9976C70.0189 27.9976 70.3032 28.2851 70.2993 28.6371L70.2417 33.8379C70.2379 34.1845 69.9558 34.4634 69.6092 34.4634L46.7866 34.4634C46.3036 34.4634 45.9988 33.9439 46.2345 33.5222L49.1414 28.3215Z" fill="black"/>
</svg>
