<svg width="389" height="516" viewBox="0 0 389 516" fill="none" xmlns="http://www.w3.org/2000/svg">
<g clip-path="url(#clip0_1917_2344)">
<rect width="389" height="516" fill="white"/>
<ellipse cx="187.977" cy="246.09" rx="81.2393" ry="82.4253" fill="#FE9DCB"/>
<path d="M186.49 66.4443C188.01 65.0784 190.316 65.0784 191.836 66.4443L292.287 156.689C295.016 159.14 293.282 163.665 289.614 163.665H88.7121C85.0444 163.665 83.3105 159.14 86.0389 156.689L186.49 66.4443Z" fill="#6C3FFE"/>
<rect width="389" height="66.4146" rx="5" fill="#F54468"/>
<path d="M331.322 517.085C334.357 517.085 336.827 514.624 336.715 511.592C336.066 493.998 332.299 476.646 325.577 460.354C318.157 442.368 307.281 426.025 293.57 412.259C279.859 398.493 263.582 387.573 245.668 380.123C227.753 372.673 208.553 368.838 189.163 368.838C169.773 368.838 150.572 372.673 132.658 380.123C114.744 387.573 98.4667 398.493 84.7558 412.259C71.0449 426.025 60.1688 442.368 52.7485 460.354C46.0269 476.646 42.2602 493.998 41.6104 511.592C41.4984 514.624 43.9692 517.085 47.004 517.085L189.163 517.085L331.322 517.085Z" fill="#56C496"/>
<path d="M335.631 221.777C335.631 260.78 320.137 298.186 292.558 325.765C264.979 353.344 227.573 368.838 188.57 368.838C149.567 368.838 112.162 353.345 84.5825 325.765C57.0032 298.186 41.5093 260.78 41.5093 221.777L82.5277 221.777C82.5277 249.902 93.7 276.874 113.587 296.761C133.474 316.648 160.446 327.82 188.57 327.82C216.694 327.82 243.667 316.648 263.554 296.761C283.441 276.874 294.613 249.902 294.613 221.777H335.631Z" fill="#FFD52F"/>
</g>
<defs>
<clipPath id="clip0_1917_2344">
<rect width="389" height="516" fill="white"/>
</clipPath>
</defs>
</svg>
