<svg width="181" height="48" viewBox="0 0 181 48" fill="none" xmlns="http://www.w3.org/2000/svg">
<path d="M54.9851 28.153C54.8445 27.5592 54.5554 27.0826 54.1179 26.7232C53.6804 26.3638 53.1491 26.1841 52.5241 26.1841C51.8678 26.1841 51.3287 26.356 50.9068 26.6998C50.5006 27.0436 50.2428 27.528 50.1334 28.153H54.9851ZM50.0162 30.614C50.0162 32.4422 50.8756 33.3563 52.5944 33.3563C53.5163 33.3563 54.2117 32.9813 54.6804 32.2313H58.7822C57.954 34.9814 55.8836 36.3565 52.571 36.3565C51.5553 36.3565 50.6256 36.208 49.7818 35.9111C48.938 35.5986 48.2114 35.1611 47.602 34.5986C47.0082 34.0361 46.5473 33.3641 46.2191 32.5829C45.891 31.8016 45.7269 30.9265 45.7269 29.9577C45.7269 28.9577 45.8832 28.0592 46.1957 27.2623C46.5082 26.4498 46.9535 25.7623 47.5317 25.1997C48.1098 24.6372 48.8052 24.2075 49.6177 23.9106C50.4459 23.5981 51.3756 23.4418 52.4069 23.4418C53.4226 23.4418 54.3367 23.5981 55.1492 23.9106C55.9618 24.2075 56.6493 24.645 57.2118 25.2232C57.7743 25.8013 58.204 26.5123 58.5009 27.3561C58.7978 28.1842 58.9463 29.1218 58.9463 30.1687V30.614H50.0162ZM63.844 29.864C63.844 30.2546 63.9143 30.6218 64.0549 30.9656C64.1956 31.2937 64.3831 31.5828 64.6175 31.8328C64.8675 32.0828 65.1565 32.2782 65.4847 32.4188C65.8285 32.5594 66.1957 32.6297 66.5863 32.6297C66.9613 32.6297 67.3129 32.5594 67.641 32.4188C67.9848 32.2782 68.2739 32.0828 68.5083 31.8328C68.7583 31.5828 68.9536 31.2937 69.0942 30.9656C69.2505 30.6375 69.3286 30.2859 69.3286 29.9109C69.3286 29.5359 69.2505 29.1843 69.0942 28.8561C68.9536 28.5124 68.7583 28.2155 68.5083 27.9655C68.2739 27.7155 67.9848 27.5201 67.641 27.3795C67.3129 27.2389 66.9613 27.1686 66.5863 27.1686C66.1957 27.1686 65.8285 27.2389 65.4847 27.3795C65.1565 27.5201 64.8675 27.7155 64.6175 27.9655C64.3831 28.2155 64.1956 28.5046 64.0549 28.8327C63.9143 29.1452 63.844 29.489 63.844 29.864ZM69.188 23.8872H73.4538V35.9111H69.188V34.5751C68.2817 35.7158 67.0551 36.2861 65.5081 36.2861C64.6331 36.2861 63.8284 36.1299 63.094 35.8174C62.3596 35.4892 61.7189 35.0361 61.172 34.4579C60.6251 33.8798 60.1954 33.2001 59.8829 32.4188C59.586 31.6375 59.4375 30.7859 59.4375 29.864C59.4375 29.0046 59.586 28.192 59.8829 27.4264C60.1798 26.6451 60.5938 25.9654 61.1251 25.3872C61.6564 24.8091 62.2892 24.3559 63.0236 24.0278C63.758 23.684 64.5706 23.5122 65.4612 23.5122C66.9613 23.5122 68.2036 24.0356 69.188 25.0825V23.8872ZM74.8758 23.8872H79.1182V25.3638C80.2745 24.2544 81.5715 23.6997 83.009 23.6997C84.7903 23.6997 86.1498 24.4497 87.0873 25.9498C88.0405 24.4341 89.3999 23.6762 91.1656 23.6762C91.7281 23.6762 92.2594 23.7622 92.7594 23.934C93.2595 24.0903 93.6892 24.3481 94.0486 24.7075C94.4079 25.0513 94.6892 25.5044 94.8923 26.067C95.1111 26.6295 95.2205 27.3092 95.2205 28.1061V35.9111H90.9781V29.9812C90.9781 29.3718 90.9312 28.8718 90.8375 28.4811C90.7594 28.0905 90.6343 27.7858 90.4625 27.567C90.3062 27.3483 90.1187 27.1998 89.8999 27.1217C89.6812 27.0436 89.4468 27.0045 89.1968 27.0045C87.8373 27.0045 87.1576 27.9967 87.1576 29.9812V35.9111H82.9153V29.9812C82.9153 29.3718 82.8762 28.8718 82.7981 28.4811C82.7199 28.0749 82.6027 27.7545 82.4465 27.5201C82.3059 27.2858 82.1183 27.1295 81.884 27.0514C81.6496 26.9576 81.3761 26.9107 81.0636 26.9107C80.798 26.9107 80.548 26.9498 80.3136 27.0279C80.0792 27.1061 79.8683 27.2623 79.6807 27.4967C79.5089 27.7155 79.3682 28.028 79.2588 28.4342C79.1651 28.8249 79.1182 29.3405 79.1182 29.9812V35.9111H74.8758V23.8872ZM104.635 26.9811C103.854 26.5748 103.089 26.3717 102.338 26.3717C101.948 26.3717 101.628 26.4498 101.377 26.606C101.143 26.7623 101.026 26.9732 101.026 27.2389C101.026 27.3795 101.042 27.4967 101.073 27.5905C101.12 27.6686 101.206 27.7467 101.331 27.8248C101.471 27.903 101.667 27.9733 101.917 28.0358C102.182 28.0983 102.526 28.1764 102.948 28.2702C104.12 28.5046 104.995 28.9265 105.573 29.5359C106.151 30.1296 106.44 30.8953 106.44 31.8328C106.44 32.536 106.3 33.1688 106.018 33.7314C105.737 34.2939 105.346 34.7705 104.846 35.1611C104.346 35.5361 103.745 35.8252 103.042 36.0283C102.338 36.2471 101.565 36.3565 100.721 36.3565C99.0961 36.3565 97.4945 35.8955 95.9163 34.9736L97.4633 31.9735C98.6508 32.786 99.7759 33.1923 100.838 33.1923C101.229 33.1923 101.549 33.1063 101.799 32.9344C102.049 32.7626 102.174 32.5438 102.174 32.2782C102.174 32.1219 102.151 31.9969 102.104 31.9031C102.073 31.7938 101.995 31.7 101.87 31.6219C101.745 31.5281 101.557 31.45 101.307 31.3875C101.073 31.3094 100.76 31.2312 100.37 31.1531C99.0571 30.8875 98.1352 30.4968 97.6039 29.9812C97.0882 29.4499 96.8304 28.7233 96.8304 27.8014C96.8304 27.1295 96.9554 26.5279 97.2054 25.9966C97.4554 25.4497 97.8148 24.9888 98.2836 24.6138C98.7524 24.2387 99.3149 23.9497 99.9712 23.7465C100.643 23.5434 101.385 23.4418 102.198 23.4418C103.526 23.4418 104.815 23.6997 106.065 24.2153L104.635 26.9811ZM112.182 27.4264V35.9111H107.939V27.4264H106.533V23.8872H107.939V20.2776H112.182V23.8872H114.596V27.4264H112.182ZM123.744 28.153C123.604 27.5592 123.315 27.0826 122.877 26.7232C122.44 26.3638 121.908 26.1841 121.283 26.1841C120.627 26.1841 120.088 26.356 119.666 26.6998C119.26 27.0436 119.002 27.528 118.892 28.153H123.744ZM118.775 30.614C118.775 32.4422 119.635 33.3563 121.354 33.3563C122.275 33.3563 122.971 32.9813 123.44 32.2313H127.541C126.713 34.9814 124.643 36.3565 121.33 36.3565C120.314 36.3565 119.385 36.208 118.541 35.9111C117.697 35.5986 116.971 35.1611 116.361 34.5986C115.767 34.0361 115.306 33.3641 114.978 32.5829C114.65 31.8016 114.486 30.9265 114.486 29.9577C114.486 28.9577 114.642 28.0592 114.955 27.2623C115.267 26.4498 115.713 25.7623 116.291 25.1997C116.869 24.6372 117.564 24.2075 118.377 23.9106C119.205 23.5981 120.135 23.4418 121.166 23.4418C122.182 23.4418 123.096 23.5981 123.908 23.9106C124.721 24.2075 125.408 24.645 125.971 25.2232C126.533 25.8013 126.963 26.5123 127.26 27.3561C127.557 28.1842 127.705 29.1218 127.705 30.1687V30.614H118.775ZM128.665 23.8872H132.908V25.856C133.361 25.1372 133.916 24.5903 134.572 24.2153C135.228 23.8247 135.994 23.6293 136.869 23.6293C136.978 23.6293 137.095 23.6293 137.22 23.6293C137.361 23.6293 137.517 23.645 137.689 23.6762V27.7311C137.127 27.4498 136.517 27.3092 135.861 27.3092C134.877 27.3092 134.134 27.6061 133.634 28.1999C133.15 28.778 132.908 29.6296 132.908 30.7547V35.9111H128.665V23.8872Z" fill="black"/>
<path d="M28.9356 23.7225C28.8622 23.834 28.7172 23.8731 28.5978 23.8136L21.4514 20.2556C21.2342 20.1475 21.266 19.8282 21.5003 19.765L33.0355 16.6545C33.2698 16.5913 33.4578 16.8514 33.3244 17.0541L28.9356 23.7225Z" fill="#7565E4"/>
<ellipse cx="143.334" cy="31.1267" rx="4.35789" ry="4.40213" fill="#FE9DCB"/>
<path d="M34.5193 35.4886C34.8457 35.4886 35.1124 35.2237 35.0908 34.898C35.0264 33.9303 34.8044 32.9783 34.4323 32.0798C33.9847 30.9991 33.3285 30.0172 32.5014 29.19C31.6742 28.3629 30.6923 27.7068 29.6116 27.2591C28.5308 26.8115 27.3725 26.5811 26.2028 26.5811C25.033 26.5811 23.8747 26.8115 22.794 27.2591C21.7133 27.7067 20.7313 28.3629 19.9042 29.19C19.077 30.0172 18.4209 30.9991 17.9733 32.0798C17.6011 32.9783 17.3791 33.9303 17.3148 34.898C17.2932 35.2237 17.5598 35.4886 17.8862 35.4886L26.2028 35.4886L34.5193 35.4886Z" fill="#56C496"/>
<path d="M33.8828 23.1032C33.9958 23.195 34.0132 23.3614 33.918 23.4716C32.4418 25.1812 30.3661 26.2662 28.1128 26.4987C25.7718 26.7403 23.4308 26.042 21.6047 24.5575C19.7786 23.0729 18.617 20.9238 18.3754 18.5829C18.1429 16.3295 18.7813 14.076 20.1534 12.2819C20.2419 12.1662 20.4083 12.1492 20.5213 12.2411L22.0326 13.4697C22.1456 13.5615 22.1622 13.7273 22.0751 13.844C21.1163 15.128 20.6722 16.7284 20.8374 18.3288C21.0115 20.0169 21.8491 21.5665 23.1659 22.637C24.4827 23.7074 26.1707 24.211 27.8587 24.0368C29.4591 23.8717 30.9352 23.1102 31.9964 21.9094C32.0928 21.8003 32.2585 21.7827 32.3715 21.8746L33.8828 23.1032Z" fill="#FFC700"/>
<path d="M44.2239 35.0106V19.124C44.2239 18.8107 43.9698 18.5566 43.6565 18.5566L40.2522 18.5567C39.9388 18.5567 39.6848 18.8107 39.6848 19.124V35.0106C39.6848 35.324 39.9388 35.578 40.2522 35.578H43.6565C43.9698 35.578 44.2239 35.324 44.2239 35.0106Z" fill="black"/>
<path d="M52.772 18.0991C52.7737 17.9424 52.9022 17.8168 53.0588 17.8186L78.8342 18.1042C78.9908 18.1059 79.1164 18.2343 79.1147 18.391L79.0804 21.491C79.0786 21.6477 78.9502 21.7733 78.7935 21.7716L53.0182 21.486C52.8615 21.4843 52.7359 21.3558 52.7377 21.1992L52.772 18.0991Z" fill="#F54468"/>
<path d="M36.1673 17.7842C36.2375 17.6586 36.3701 17.5808 36.514 17.5808L49.0556 17.5808C49.2767 17.5808 49.4552 17.7613 49.4528 17.9823L49.4166 21.248C49.4142 21.4656 49.2371 21.6407 49.0194 21.6407L34.6887 21.6407C34.3854 21.6407 34.1941 21.3145 34.342 21.0498L36.1673 17.7842Z" fill="black"/>
</svg>
