<svg width="557" height="198" viewBox="0 0 557 198" fill="none" xmlns="http://www.w3.org/2000/svg">
<rect width="557" height="198" fill="white"/>
<path d="M197.163 110.555C196.729 108.724 195.838 107.255 194.489 106.147C193.14 105.039 191.502 104.485 189.574 104.485C187.551 104.485 185.889 105.015 184.588 106.075C183.335 107.134 182.54 108.628 182.203 110.555H197.163ZM181.842 118.143C181.842 123.78 184.492 126.599 189.791 126.599C192.634 126.599 194.778 125.443 196.223 123.13H208.87C206.317 131.61 199.933 135.849 189.719 135.849C186.587 135.849 183.721 135.392 181.119 134.476C178.517 133.513 176.277 132.164 174.398 130.429C172.567 128.695 171.146 126.623 170.134 124.214C169.122 121.805 168.617 119.107 168.617 116.12C168.617 113.036 169.098 110.266 170.062 107.809C171.025 105.304 172.399 103.184 174.181 101.449C175.964 99.7149 178.108 98.39 180.613 97.4746C183.167 96.511 186.033 96.0292 189.213 96.0292C192.345 96.0292 195.163 96.511 197.669 97.4746C200.174 98.39 202.294 99.739 204.028 101.522C205.763 103.304 207.088 105.496 208.003 108.098C208.918 110.652 209.376 113.542 209.376 116.77V118.143H181.842ZM224.477 115.831C224.477 117.035 224.694 118.168 225.128 119.227C225.561 120.239 226.14 121.131 226.862 121.901C227.633 122.672 228.524 123.275 229.536 123.708C230.596 124.142 231.728 124.359 232.933 124.359C234.089 124.359 235.173 124.142 236.185 123.708C237.245 123.275 238.136 122.672 238.859 121.901C239.63 121.131 240.232 120.239 240.666 119.227C241.147 118.216 241.388 117.132 241.388 115.975C241.388 114.819 241.147 113.735 240.666 112.723C240.232 111.663 239.63 110.748 238.859 109.977C238.136 109.206 237.245 108.604 236.185 108.17C235.173 107.737 234.089 107.52 232.933 107.52C231.728 107.52 230.596 107.737 229.536 108.17C228.524 108.604 227.633 109.206 226.862 109.977C226.14 110.748 225.561 111.639 225.128 112.651C224.694 113.615 224.477 114.675 224.477 115.831ZM240.955 97.4023H254.108V134.476H240.955V130.357C238.16 133.874 234.378 135.632 229.609 135.632C226.91 135.632 224.429 135.151 222.165 134.187C219.9 133.175 217.925 131.778 216.239 129.996C214.553 128.213 213.228 126.117 212.264 123.708C211.349 121.299 210.891 118.673 210.891 115.831C210.891 113.181 211.349 110.676 212.264 108.315C213.179 105.906 214.456 103.81 216.094 102.027C217.732 100.245 219.684 98.8477 221.948 97.8359C224.212 96.776 226.718 96.246 229.464 96.246C234.089 96.246 237.919 97.86 240.955 101.088V97.4023ZM258.492 97.4023H271.573V101.955C275.138 98.5345 279.137 96.8241 283.57 96.8241C289.062 96.8241 293.254 99.1367 296.144 103.762C299.083 99.0886 303.275 96.7519 308.719 96.7519C310.454 96.7519 312.092 97.0168 313.633 97.5468C315.175 98.0286 316.5 98.8236 317.608 99.9317C318.716 100.992 319.584 102.389 320.21 104.123C320.884 105.858 321.222 107.954 321.222 110.411V134.476H308.141V116.192C308.141 114.313 307.996 112.771 307.707 111.567C307.466 110.362 307.081 109.423 306.551 108.748C306.069 108.074 305.491 107.616 304.817 107.375C304.142 107.134 303.419 107.014 302.649 107.014C298.457 107.014 296.361 110.073 296.361 116.192V134.476H283.281V116.192C283.281 114.313 283.16 112.771 282.919 111.567C282.678 110.314 282.317 109.327 281.835 108.604C281.402 107.881 280.823 107.399 280.101 107.159C279.378 106.869 278.535 106.725 277.571 106.725C276.752 106.725 275.981 106.845 275.259 107.086C274.536 107.327 273.886 107.809 273.307 108.532C272.777 109.206 272.344 110.17 272.007 111.422C271.718 112.627 271.573 114.217 271.573 116.192V134.476H258.492V97.4023ZM350.251 106.942C347.842 105.689 345.481 105.063 343.169 105.063C341.964 105.063 340.977 105.304 340.206 105.785C339.483 106.267 339.122 106.918 339.122 107.737C339.122 108.17 339.17 108.532 339.266 108.821C339.411 109.062 339.676 109.303 340.061 109.543C340.495 109.784 341.097 110.001 341.868 110.194C342.687 110.387 343.747 110.627 345.048 110.917C348.661 111.639 351.359 112.94 353.142 114.819C354.924 116.65 355.816 119.011 355.816 121.901C355.816 124.069 355.382 126.021 354.515 127.755C353.648 129.49 352.443 130.959 350.902 132.164C349.36 133.32 347.505 134.211 345.337 134.838C343.169 135.512 340.784 135.849 338.182 135.849C333.172 135.849 328.233 134.428 323.367 131.585L328.137 122.335C331.798 124.84 335.267 126.093 338.544 126.093C339.748 126.093 340.736 125.828 341.507 125.298C342.277 124.768 342.663 124.094 342.663 123.275C342.663 122.793 342.591 122.407 342.446 122.118C342.35 121.781 342.109 121.492 341.723 121.251C341.338 120.962 340.76 120.721 339.989 120.528C339.266 120.287 338.303 120.046 337.098 119.806C333.051 118.987 330.209 117.782 328.57 116.192C326.981 114.554 326.186 112.314 326.186 109.471C326.186 107.399 326.571 105.545 327.342 103.906C328.113 102.22 329.221 100.799 330.666 99.6426C332.112 98.4863 333.846 97.595 335.87 96.9687C337.941 96.3423 340.23 96.0292 342.735 96.0292C346.83 96.0292 350.805 96.8241 354.659 98.414L350.251 106.942ZM373.519 108.315V134.476H360.438V108.315H356.102V97.4023H360.438V86.2729H373.519V97.4023H380.962V108.315H373.519ZM409.17 110.555C408.736 108.724 407.845 107.255 406.496 106.147C405.147 105.039 403.509 104.485 401.582 104.485C399.558 104.485 397.896 105.015 396.595 106.075C395.342 107.134 394.548 108.628 394.21 110.555H409.17ZM393.849 118.143C393.849 123.78 396.499 126.599 401.798 126.599C404.641 126.599 406.785 125.443 408.23 123.13H420.877C418.324 131.61 411.94 135.849 401.726 135.849C398.595 135.849 395.728 135.392 393.126 134.476C390.525 133.513 388.284 132.164 386.405 130.429C384.574 128.695 383.153 126.623 382.141 124.214C381.13 121.805 380.624 119.107 380.624 116.12C380.624 113.036 381.106 110.266 382.069 107.809C383.033 105.304 384.406 103.184 386.188 101.449C387.971 99.7149 390.115 98.39 392.62 97.4746C395.174 96.511 398.041 96.0292 401.22 96.0292C404.352 96.0292 407.17 96.511 409.676 97.4746C412.181 98.39 414.301 99.739 416.035 101.522C417.77 103.304 419.095 105.496 420.01 108.098C420.926 110.652 421.383 113.542 421.383 116.77V118.143H393.849ZM424.344 97.4023H437.424V103.473C438.821 101.257 440.532 99.5703 442.555 98.414C444.579 97.2096 446.94 96.6073 449.638 96.6073C449.975 96.6073 450.336 96.6073 450.722 96.6073C451.155 96.6073 451.637 96.6555 452.167 96.7519V109.254C450.433 108.387 448.554 107.954 446.53 107.954C443.495 107.954 441.206 108.869 439.664 110.7C438.171 112.482 437.424 115.108 437.424 118.577V134.476H424.344V97.4023Z" fill="black"/>
<path d="M116.843 98.1426C116.617 98.4862 116.17 98.6068 115.802 98.4235L93.7671 87.453C93.0974 87.1196 93.1955 86.135 93.9178 85.9402L129.485 76.3496C130.207 76.1548 130.787 76.9566 130.376 77.5815L116.843 98.1426Z" fill="#7565E4"/>
<ellipse cx="469.573" cy="120.975" rx="13.4368" ry="13.5732" fill="#FE9DCB"/>
<path d="M134.06 134.421C135.066 134.421 135.889 133.605 135.822 132.6C135.624 129.617 134.939 126.681 133.792 123.911C132.411 120.579 130.388 117.551 127.838 115.001C125.288 112.45 122.26 110.427 118.928 109.047C115.596 107.667 112.024 106.956 108.417 106.956C104.811 106.956 101.239 107.667 97.9069 109.047C94.5747 110.427 91.547 112.45 88.9966 115.001C86.4463 117.551 84.4232 120.579 83.043 123.911C81.8955 126.681 81.211 129.617 81.0127 132.6C80.946 133.605 81.7682 134.421 82.7746 134.421L108.417 134.421L134.06 134.421Z" fill="#56C496"/>
<path d="M132.097 96.2339C132.445 96.5171 132.499 97.0302 132.206 97.37C127.654 102.641 121.254 105.987 114.306 106.704C107.088 107.448 99.8701 105.295 94.2396 100.718C88.6091 96.1408 85.0276 89.5143 84.2828 82.2963C83.5659 75.3484 85.5341 68.4003 89.7649 62.8682C90.0376 62.5116 90.5508 62.4594 90.8992 62.7426L95.5589 66.5307C95.9073 66.8139 95.9586 67.3251 95.69 67.6849C92.7337 71.6439 91.3646 76.5786 91.8737 81.5131C92.4108 86.7178 94.9933 91.496 99.0534 94.7966C103.113 98.0971 108.318 99.6497 113.523 99.1126C118.458 98.6035 123.009 96.2556 126.281 92.5532C126.578 92.2168 127.089 92.1626 127.437 92.4458L132.097 96.2339Z" fill="#FFC700"/>
<path d="M163.983 132.95V83.9661C163.983 82.9999 163.199 82.2167 162.233 82.2167L151.737 82.2167C150.771 82.2167 149.987 83 149.987 83.9661V132.95C149.987 133.916 150.771 134.699 151.737 134.699H162.233C163.199 134.699 163.983 133.916 163.983 132.95Z" fill="black"/>
<path d="M190.339 80.8049C190.344 80.3218 190.74 79.9346 191.223 79.9399L270.697 80.8205C271.18 80.8258 271.568 81.2218 271.562 81.7048L271.456 91.2634C271.451 91.7465 271.055 92.1337 270.572 92.1284L191.098 91.2478C190.615 91.2424 190.228 90.8465 190.233 90.3634L190.339 80.8049Z" fill="#F54468"/>
<path d="M139.142 79.8327C139.358 79.4455 139.767 79.2056 140.211 79.2056L178.88 79.2056C179.562 79.2056 180.113 79.7621 180.105 80.4437L179.993 90.5128C179.986 91.1838 179.44 91.7238 178.769 91.7238L134.583 91.7238C133.647 91.7238 133.057 90.718 133.514 89.9017L139.142 79.8327Z" fill="black"/>
</svg>
